<svg width="24" height="24" viewBox="0 0 24 24" fill="none" xmlns="http://www.w3.org/2000/svg">
  <circle cx="12" cy="12" r="10" fill="#F7931A"/>
  <path d="M13.5 8.5C13.5 7.5 13 7 12 7H10V10H12C13 10 13.5 9.5 13.5 8.5Z" fill="white"/>
  <path d="M13.8 12.5C13.8 11.4 13.2 11 12 11H10V14H12C13.2 14 13.8 13.6 13.8 12.5Z" fill="white"/>
  <path d="M10 6V7H12C13.5 7 14.5 7.8 14.5 9C14.5 9.8 14 10.4 13.5 10.7C14.2 11 14.8 11.7 14.8 12.7C14.8 14 13.7 15 12 15H10V16H9V15H8V16H7V15H6V14H7V7H6V6H7V5H8V6H9V5H10V6Z" fill="white"/>
</svg>

