<?xml version="1.0" encoding="UTF-8"?>
<svg version="1.1" xmlns="http://www.w3.org/2000/svg" width="48" height="48">
<path d="M0 0 C15.84 0 31.68 0 48 0 C48 15.84 48 31.68 48 48 C32.16 48 16.32 48 0 48 C0 32.16 0 16.32 0 0 Z " fill="#232323" transform="translate(0,0)"/>
<path d="M0 0 C0.66 0 1.32 0 2 0 C2 0.99 2 1.98 2 3 C3.65 3.33 5.3 3.66 7 4 C7 6.31 7 8.62 7 11 C4.69 11 2.38 11 0 11 C0 7.37 0 3.74 0 0 Z " fill="#AAAAAA" transform="translate(25,18)"/>
<path d="M0 0 C2.5 0.125 2.5 0.125 3.5 1.125 C3.54092937 3.45797433 3.54241723 5.79205225 3.5 8.125 C1.19 8.125 -1.12 8.125 -3.5 8.125 C-3.54241723 5.79205225 -3.54092937 3.45797433 -3.5 1.125 C-2.5 0.125 -2.5 0.125 0 0 Z " fill="#D3D3D3" transform="translate(19.5,20.875)"/>
<path d="M0 0 C1.65 0 3.3 0 5 0 C5.33 0.99 5.66 1.98 6 3 C5.01 3 4.02 3 3 3 C3.99 3.33 4.98 3.66 6 4 C6 5.32 6 6.64 6 8 C3.69 8 1.38 8 -1 8 C-1 7.34 -1 6.68 -1 6 C1.475 6.495 1.475 6.495 4 7 C4 6.34 4 5.68 4 5 C2.35 4.67 0.7 4.34 -1 4 C-0.67 2.68 -0.34 1.36 0 0 Z " fill="#C9C9C9" transform="translate(35,21)"/>
<path d="M0 0 C0.66 0 1.32 0 2 0 C2 0.66 2 1.32 2 2 C2.99 2 3.98 2 5 2 C5 2.66 5 3.32 5 4 C4.01 4 3.02 4 2 4 C2 5.65 2 7.3 2 9 C2.99 9.33 3.98 9.66 5 10 C3.35 10 1.7 10 0 10 C0 8.02 0 6.04 0 4 C-0.66 4 -1.32 4 -2 4 C-2 3.34 -2 2.68 -2 2 C-1.34 2 -0.68 2 0 2 C0 1.34 0 0.68 0 0 Z " fill="#C3C3C3" transform="translate(9,19)"/>
<path d="M0 0 C1.04449911 3.13349732 0.93423645 3.98968256 0 7 C-1.65 6.67 -3.3 6.34 -5 6 C-5 4.35 -5 2.7 -5 1 C-2 0 -2 0 0 0 Z " fill="#2F2F2F" transform="translate(16,22)"/>
<path d="M0 0 C1.2065625 0.0309375 1.2065625 0.0309375 2.4375 0.0625 C1.7775 2.3725 1.1175 4.6825 0.4375 7.0625 C-0.2225 7.0625 -0.8825 7.0625 -1.5625 7.0625 C-2.2225 5.0825 -2.8825 3.1025 -3.5625 1.0625 C-2.5625 0.0625 -2.5625 0.0625 0 0 Z " fill="#939393" transform="translate(19.5625,20.9375)"/>
<path d="M0 0 C0.66 0 1.32 0 2 0 C2 0.99 2 1.98 2 3 C3.65 3.33 5.3 3.66 7 4 C7 4.66 7 5.32 7 6 C5.35 5.67 3.7 5.34 2 5 C2 5.66 2 6.32 2 7 C1.34 7 0.68 7 0 7 C0 4.69 0 2.38 0 0 Z " fill="#494949" transform="translate(32,22)"/>
</svg>
